<?xml version="1.0" encoding="iso-8859-1"?>
<!-- Generator: Adobe Illustrator 19.0.0, SVG Export Plug-In . SVG Version: 6.00 Build 0)  -->
<svg version="1.1" id="Capa_1" xmlns="http://www.w3.org/2000/svg" xmlns:xlink="http://www.w3.org/1999/xlink" x="0px" y="0px"
	 viewBox="0 0 479.956 479.956" style="enable-background:new 0 0 479.956 479.956;" xml:space="preserve">
<path d="M312.124,95.977v-16c0-4.418-3.582-8-8-8s-8,3.582-8,8v16c0,4.418,3.582,8,8,8S312.124,100.396,312.124,95.977z"/>
<path d="M394.628,136.777l11.32-11.312c3.126-3.126,3.126-8.194,0-11.32s-8.194-3.126-11.32,0l-11.312,11.328
	c-3.221,3.025-3.38,8.087-0.355,11.308s8.087,3.38,11.308,0.355C394.392,137.021,394.512,136.901,394.628,136.777z"/>
<path d="M440.124,223.977c4.418,0,8-3.582,8-8s-3.582-8-8-8h-16c-4.418,0-8,3.582-8,8s3.582,8,8,8H440.124z"/>
<path d="M219.268,139.129c4.418-0.001,7.999-3.583,7.998-8.002c0-2.121-0.843-4.155-2.342-5.654l-11.312-11.32
	c-3.126-3.124-8.192-3.122-11.316,0.004c-3.124,3.126-3.122,8.192,0.004,11.316l11.312,11.304
	C215.11,138.281,217.145,139.127,219.268,139.129L219.268,139.129z"/>
<circle style="fill:#FFD33F;" cx="304.116" cy="215.977" r="88"/>
<path style="fill:#75E6FF;" d="M271.956,247.977c0.005-35.346-28.645-64.004-63.991-64.009c-8.611-0.001-17.133,1.735-25.057,5.105
	c-19.036-34.842-62.712-47.655-97.554-28.619c-25.956,14.181-40.577,42.813-36.846,72.155
	c-26.161,4.284-43.896,28.965-39.612,55.126c3.782,23.091,23.661,40.091,47.06,40.242h216c22.091,0,40-17.909,40-40
	S294.047,247.977,271.956,247.977z"/>
<path style="fill:#ADF0FF;" d="M407.956,271.977c-6.33-0.001-12.625,0.937-18.68,2.784c-11.667-47.13-59.331-75.879-106.461-64.212
	c-36.636,9.069-63.395,40.51-66.491,78.124c-2.768-0.443-5.565-0.676-8.368-0.696c-30.928,0-56,25.072-56,56s25.072,56,56,56h200
	c35.346,0,64-28.654,64-64S443.302,271.977,407.956,271.977L407.956,271.977z"/>
<path d="M407.956,263.977c-4.412,0.001-8.814,0.406-13.152,1.208c-1.056-3.08-2.271-6.102-3.64-9.056
	c22.454-47.986,1.756-105.089-46.23-127.543s-105.089-1.756-127.543,46.23c-0.271,0.579-0.536,1.161-0.795,1.745
	c-10.18-1.326-20.526-0.392-30.304,2.736c-24.696-36.636-74.416-46.316-111.052-21.62c-22.049,14.863-35.272,39.709-35.284,66.3
	v2.352c-29.629,8.869-46.458,40.078-37.589,69.707c7.089,23.683,28.868,39.915,53.589,39.941h88.552
	c-4.622,34.838,19.872,66.826,54.71,71.448c2.896,0.384,5.816,0.569,8.738,0.552h200c39.764,0,72-32.236,72-72
	S447.72,263.977,407.956,263.977z M304.124,135.977c44.019-0.164,79.836,35.388,80,79.407c0.029,7.818-1.092,15.598-3.328,23.089
	c-18.088-24.257-46.582-38.532-76.84-38.496c-12.586,0.027-25.041,2.567-36.632,7.472c-8.496-12.431-20.684-21.878-34.84-27.008
	C246.048,153.278,273.762,136.076,304.124,135.977L304.124,135.977z M55.956,319.977c-22.091-0.176-39.856-18.227-39.68-40.317
	c0.155-19.454,14.285-35.976,33.48-39.147c4.254-0.667,7.217-4.581,6.704-8.856c-0.318-2.548-0.486-5.112-0.504-7.68
	c-0.022-35.346,28.614-64.018,63.96-64.04c23.297-0.015,44.762,12.631,56.04,33.016c1.987,3.582,6.359,5.084,10.128,3.48
	c23.917-10.156,51.678-2.539,67.064,18.4c-23.177,14.519-39.097,38.2-43.792,65.144h-1.4c-26.058,0.037-49.498,15.851-59.288,40
	H55.956z M407.956,391.977h-200c-26.509,0.197-48.159-21.132-48.356-47.641c-0.197-26.509,21.132-48.159,47.641-48.356
	c2.65-0.02,5.298,0.18,7.915,0.597c4.369,0.66,8.445-2.346,9.106-6.715c0.027-0.177,0.048-0.355,0.062-0.533
	c3.619-43.986,42.21-76.709,86.195-73.091c34.196,2.813,62.78,27.143,71.021,60.451c1.062,4.289,5.399,6.905,9.688,5.843
	c0.14-0.035,0.278-0.073,0.416-0.115c29.58-9.03,60.88,7.63,69.91,37.21s-7.63,60.88-37.21,69.91
	C419.032,391.159,413.509,391.981,407.956,391.977z"/>
<g>
</g>
<g>
</g>
<g>
</g>
<g>
</g>
<g>
</g>
<g>
</g>
<g>
</g>
<g>
</g>
<g>
</g>
<g>
</g>
<g>
</g>
<g>
</g>
<g>
</g>
<g>
</g>
<g>
</g>
</svg>
