<?xml version="1.0" encoding="iso-8859-1"?>
<!-- Generator: Adobe Illustrator 19.0.0, SVG Export Plug-In . SVG Version: 6.00 Build 0)  -->
<svg version="1.1" id="Capa_1" xmlns="http://www.w3.org/2000/svg" xmlns:xlink="http://www.w3.org/1999/xlink" x="0px" y="0px"
	 viewBox="0 0 513.352 513.352" style="enable-background:new 0 0 513.352 513.352;" xml:space="preserve">
<circle style="fill:#FFC107;" cx="417.352" cy="96.688" r="96"/>
<path style="fill:#E3F2FD;" d="M417.352,160.688h-3.2c-17.606-86.594-102.076-142.52-188.67-124.915
	c-51.134,10.396-93.986,45.073-114.818,92.915C48.808,129.431-0.734,180.176,0.008,242.032s51.488,111.398,113.344,110.656h304
	c53.019,0,96-42.981,96-96S470.372,160.688,417.352,160.688z"/>
<path style="fill:#2196F3;" d="M132.2,391.6c-16.792,21.539-28.684,46.481-34.848,73.088c0,26.51,21.49,48,48,48s48-21.49,48-48l0,0
	c-6.164-26.607-18.056-51.549-34.848-73.088c-5.572-7.264-15.977-8.635-23.241-3.063C134.113,389.42,133.083,390.45,132.2,391.6z"/>
<path d="M417.352,352.688h-304c-61.856,0.742-112.602-48.8-113.344-110.656s48.8-112.602,110.656-113.344
	C145.943,47.671,240.22,10.592,321.238,45.87c47.841,20.832,82.518,63.684,92.915,114.818c53.019-0.884,96.716,41.381,97.6,94.4
	C512.636,308.108,470.372,351.805,417.352,352.688z M113.352,160.688c-44.183,0-80,35.817-80,80s35.817,80,80,80h304
	c35.346,0,64-28.654,64-64s-28.654-64-64-64c-4.585,0.031-9.157,0.47-13.664,1.312c-8.681,1.653-17.058-4.044-18.71-12.725
	c-0.087-0.459-0.155-0.922-0.202-1.387c-7.001-70.345-69.702-121.695-140.047-114.694c-49.635,4.94-91.879,38.263-108.241,85.382
	c-2.716,7.801-10.925,12.251-18.944,10.272C116.152,160.703,114.752,160.65,113.352,160.688z"/>
<path d="M417.352,192.688c-7.054,0.039-14.088-0.745-20.96-2.336c-8.637-1.867-14.126-10.382-12.259-19.019
	s10.382-14.126,19.019-12.259c0.201,0.043,0.401,0.091,0.6,0.142c4.464,1.001,9.026,1.494,13.6,1.472
	c35.346-0.068,63.945-28.777,63.877-64.123s-28.777-63.945-64.123-63.877c-28.621,0.055-53.726,19.106-61.482,46.656
	c-2.43,8.501-11.291,13.422-19.792,10.992S322.41,79.045,324.84,70.544c14.439-51.015,67.5-80.666,118.516-66.227
	s80.666,67.5,66.227,118.516C497.9,164.109,460.251,192.626,417.352,192.688z"/>
<path d="M145.352,512.688c-26.51,0-48-21.49-48-48l0,0c6.164-26.607,18.056-51.549,34.848-73.088
	c5.572-7.264,15.977-8.635,23.241-3.063c1.151,0.883,2.18,1.912,3.063,3.063c16.792,21.539,28.684,46.481,34.848,73.088
	C193.352,491.198,171.862,512.688,145.352,512.688L145.352,512.688z M145.352,430.352c-7.128,10.52-12.529,22.112-16,34.336
	c0,8.837,7.163,16,16,16s16-7.163,16-16C157.887,452.462,152.486,440.869,145.352,430.352z"/>
<path d="M337.352,512.688c-8.837,0-16-7.163-16-16v-96c0-8.837,7.163-16,16-16s16,7.163,16,16v96
	C353.352,505.525,346.189,512.688,337.352,512.688z"/>
<path d="M378.952,488.688c-2.8,0.013-5.552-0.728-7.968-2.144l-83.2-48c-7.623-4.469-10.18-14.271-5.712-21.895
	c4.427-7.552,14.102-10.144,21.712-5.817l83.2,48c7.652,4.419,10.274,14.204,5.855,21.857
	C389.976,485.649,384.679,488.7,378.952,488.688L378.952,488.688z"/>
<path d="M295.752,488.688c-8.837,0.017-16.014-7.132-16.031-15.969c-0.011-5.727,3.04-11.024,7.999-13.887l83.2-48
	c7.623-4.469,17.426-1.912,21.895,5.712c4.469,7.623,1.912,17.426-5.712,21.895c-0.061,0.036-0.122,0.071-0.183,0.106l-83.2,48
	C301.304,487.961,298.552,488.701,295.752,488.688z"/>
<g>
</g>
<g>
</g>
<g>
</g>
<g>
</g>
<g>
</g>
<g>
</g>
<g>
</g>
<g>
</g>
<g>
</g>
<g>
</g>
<g>
</g>
<g>
</g>
<g>
</g>
<g>
</g>
<g>
</g>
</svg>
