<?xml version="1.0"?>
<svg xmlns="http://www.w3.org/2000/svg" viewBox="0 0 64 64" width="512" height="512"><g id="sun_thunder" data-name="sun thunder"><path d="M54.52,23.25A13.287,13.287,0,0,1,49,47.94V48H36.25l3.32-5.65L41.18,39H31.64l1.48-8.53-6.21,9.97L25.18,43h9.73l-1.73,5.06L33,48H21.03A18.333,18.333,0,0,1,8.09,42.65,10.865,10.865,0,0,1,18.81,23.78a15.708,15.708,0,0,1,14.48-9.61c.45,0,.9.02,1.34.06a11.006,11.006,0,1,0,19.89,9.02Z" style="fill:#acabb1"/><path d="M55,20a11.205,11.205,0,0,1-.48,3.25A11.031,11.031,0,1,1,55,20Z" style="fill:#ffda44"/><polygon points="36.25 48 28.92 60.49 33.18 48.06 34.91 43 28.41 43 25.18 43 26.91 40.44 33.12 30.47 31.64 39 38.05 39 41.18 39 39.57 42.35 36.25 48" style="fill:#ffda44"/><path d="M55.66,22.788a11.988,11.988,0,0,0-21.542-9.581c-.276-.014-.55-.037-.828-.037a16.674,16.674,0,0,0-14.977,9.293A11.867,11.867,0,0,0,7.458,43.433,19.213,19.213,0,0,0,21.03,49H31.8L27.978,60.163a1,1,0,0,0,1.808.83L36.821,49H49a.9.9,0,0,0,.405-.1A14.2,14.2,0,0,0,62.08,34.71,14.351,14.351,0,0,0,55.66,22.788ZM44,10A10,10,0,1,1,34,20,10.011,10.011,0,0,1,44,10ZM35.859,43.324A1,1,0,0,0,34.913,42H27.065l4.194-6.647-.6,3.476A1,1,0,0,0,31.641,40h7.948l-6.5,11.414Zm13.051,3.62a.915.915,0,0,0-.239.056H37.994l4.085-7.566a1,1,0,0,0-.9-1.434H32.83l1.276-7.361a1,1,0,0,0-1.834-.7l-7.921,12.5A1,1,0,0,0,25.178,44h8.336l-1.028,3H21.03A17.454,17.454,0,0,1,8.8,41.942a1.05,1.05,0,0,0-.165-.132,9.866,9.866,0,0,1,9.732-17.135,1.006,1.006,0,0,0,.794.043.993.993,0,0,0,.574-.55A14.676,14.676,0,0,1,33.018,15.18,11.994,11.994,0,1,0,55,24.784a12.267,12.267,0,0,1-6.089,22.16Z"/><path d="M17.386,26.378a7.771,7.771,0,0,0-3.511-.837,7.869,7.869,0,0,0-4.246,14.5l.271.176.229.226a1,1,0,1,0,1.41-1.418l-.3-.3a.929.929,0,0,0-.162-.131l-.362-.235a5.865,5.865,0,0,1,5.779-10.19,1,1,0,1,0,.895-1.789Z"/><path d="M44,6a1,1,0,0,0,1-1V3a1,1,0,0,0-2,0V5A1,1,0,0,0,44,6Z"/><path d="M47.624,6.477a1,1,0,0,0,1.224-.707l.518-1.932a1,1,0,1,0-1.932-.518l-.517,1.932A1,1,0,0,0,47.624,6.477Z"/><path d="M51,7.876a1,1,0,0,0,1.366-.366l1-1.733a1,1,0,1,0-1.732-1l-1,1.733A1,1,0,0,0,51,7.876Z"/><path d="M54.606,10.394a1,1,0,0,0,.707-.293l1.415-1.414a1,1,0,1,0-1.414-1.415L53.9,8.687a1,1,0,0,0,.707,1.707Z"/><path d="M56.124,13a1,1,0,0,0,.867.5.992.992,0,0,0,.5-.134l1.733-1a1,1,0,0,0-1-1.732l-1.733,1A1,1,0,0,0,56.124,13Z"/><path d="M57.523,16.377a1,1,0,0,0,.965.741,1.015,1.015,0,0,0,.26-.034l1.932-.519a1,1,0,1,0-.518-1.931l-1.933.518A1,1,0,0,0,57.523,16.377Z"/><path d="M59,19a1,1,0,0,0,0,2h2a1,1,0,0,0,0-2Z"/><path d="M32.687,10.1A1,1,0,0,0,34.1,8.687L32.686,7.272a1,1,0,0,0-1.414,1.415Z"/><path d="M35.634,7.51a1,1,0,1,0,1.732-1l-1-1.733a1,1,0,0,0-1.732,1Z"/><path d="M39.152,5.77a1,1,0,1,0,1.931-.518L40.566,3.32a1,1,0,0,0-1.932.518Z"/></g></svg>
