<?xml version="1.0" encoding="iso-8859-1"?>
<!-- Generator: Adobe Illustrator 19.0.0, SVG Export Plug-In . SVG Version: 6.00 Build 0)  -->
<svg xmlns="http://www.w3.org/2000/svg" xmlns:xlink="http://www.w3.org/1999/xlink" version="1.1" id="Layer_1" x="0px" y="0px" viewBox="0 0 512.007 512.007" style="enable-background:new 0 0 512.007 512.007;" xml:space="preserve" width="512" height="512">
<g id="XMLID_2412_">
	<g id="XMLID_2534_">
		<path id="XMLID_1877_" style="fill:#B1D9FF;" d="M62.058,178.002H50.4c-22.312,0-40.4-18.088-40.4-40.4s18.088-40.4,40.4-40.4    c10.428,0,19.932,3.952,27.099,10.439c-0.725-4.44-1.108-8.994-1.108-13.638c0-46.392,37.608-84,84-84    c44.209,0,80.441,34.152,83.752,77.512c7.869-0.05,15.852,1.944,23.133,6.213c21.555,12.639,28.783,40.359,16.144,61.915    c-8.739,14.904-24.687,22.952-40.823,22.326v0.033h-21.741H62.058z"/>
		<path id="XMLID_814_" style="fill:#FF6371;" d="M303.737,306.379c-75.371,0-136.471-61.1-136.471-136.471    c0-33.044,11.748-63.341,31.291-86.951c2.366-2.858-0.047-7.117-3.713-6.544C129.133,86.681,78.96,143.836,79.62,212.58    c0.72,74.93,62.525,135.66,137.457,135.126c34.32-0.244,65.624-13.161,89.476-34.299c2.781-2.464,1.007-7.032-2.709-7.029    C303.809,306.379,303.773,306.379,303.737,306.379z"/>
		<path id="XMLID_798_" style="fill:#55B2FF;" d="M426.891,502.003c41.485,0,75.116-33.63,75.116-75.116    c0-35.838-25.106-65.794-58.684-73.291c2.856-10.165,4.388-20.885,4.388-31.963c0-65.119-52.789-117.907-117.907-117.907    c-60.928,0-111.059,46.215-117.259,105.501c-16.597-15.153-41.264-19.839-63.01-9.936c-23.381,10.648-36.247,34.918-33.51,59.135    c-9.428-4.263-19.883-6.655-30.902-6.655c-41.485,0-75.116,33.63-75.116,75.116s33.63,75.116,75.116,75.116H426.891z"/>
	</g>
	<g id="XMLID_2399_">
		<g id="XMLID_2400_">
			<path id="XMLID_2408_" d="M493.021,373.313c-9.909-12.21-23.07-21.455-37.762-26.666c1.628-8.208,2.451-16.586,2.451-25.014     c0-70.528-57.379-127.908-127.908-127.908c-31.817,0-62.312,11.758-85.868,33.109c-11.123,10.082-20.263,21.911-27.156,34.901     c-20.826-19.695-34.196-45.582-38.224-73.734h64.042c0.172,0,0.343-0.004,0.513-0.013c0.424,0.01,0.844,0.015,1.267,0.015     c19.592-0.001,37.713-10.321,47.67-27.303c7.464-12.729,9.524-27.603,5.801-41.882s-12.784-26.253-25.513-33.717     c-5.962-3.496-12.503-5.83-19.269-6.905c-3.431-20.263-13.419-38.844-28.649-53.018C206.971,8.944,184.233,0.003,160.39,0.003     c-50.433,0-91.717,39.924-93.908,89.827c-5.134-1.727-10.558-2.627-16.082-2.627c-27.791,0-50.4,22.609-50.4,50.4     s22.609,50.4,50.4,50.4h21.072c-1.228,7.642-1.858,15.41-1.858,23.236c0,40.213,16.503,78.485,45.497,106.09     c-4.854,8.188-7.98,17.389-9.047,27.046c-6.803-1.73-13.806-2.603-20.941-2.603c-46.933,0-85.116,38.183-85.116,85.116     s38.183,85.116,85.116,85.116h72.552c5.523,0,10-4.477,10-10s-4.477-10-10-10H85.123c-35.905,0-65.116-29.211-65.116-65.116     s29.211-65.116,65.116-65.116c9.308,0,18.319,1.94,26.782,5.767c3.275,1.482,7.098,1.089,10.006-1.028     c2.908-2.117,4.455-5.633,4.05-9.207c-2.333-20.643,8.806-40.299,27.718-48.912c17.477-7.958,37.936-4.733,52.122,8.22     c2.788,2.545,6.769,3.303,10.296,1.962c3.527-1.341,6-4.554,6.392-8.307c5.756-55.038,51.89-96.542,107.313-96.542     c59.5,0,107.908,48.407,107.908,107.908c0,9.934-1.351,19.777-4.015,29.258c-0.743,2.644-0.366,5.477,1.042,7.834     s3.725,4.032,6.405,4.63c29.472,6.58,50.863,33.299,50.863,63.532c0,35.905-29.211,65.116-65.116,65.116H237.674     c-5.523,0-10,4.477-10,10s4.477,10,10,10h189.217c46.933,0,85.116-38.183,85.116-85.116     C512.007,407.425,505.264,388.398,493.021,373.313z M50.4,168.002c-16.763,0-30.4-13.637-30.4-30.4s13.637-30.4,30.4-30.4     c7.552,0,14.793,2.789,20.389,7.854c3.151,2.852,7.759,3.4,11.492,1.368c3.732-2.032,5.772-6.201,5.087-10.395     c-0.648-3.972-0.978-8.019-0.978-12.027c0-40.804,33.196-74,74-74c38.449,0,70.857,29.989,73.781,68.274     c0.4,5.237,4.746,9.26,10.036,9.238c6.33-0.057,12.542,1.633,18.01,4.839c8.121,4.762,13.901,12.401,16.276,21.51     c2.375,9.109,1.061,18.599-3.701,26.72c-6.587,11.233-18.783,17.905-31.809,17.392c-0.399-0.015-0.797-0.007-1.19,0.026h-64.507     c0.435-28.701,10.682-56.571,28.975-78.672c3.755-4.537,4.3-10.775,1.389-15.894c-2.902-5.103-8.528-7.816-14.323-6.91     c-34.139,5.329-65.441,22.739-88.141,49.024c-13.297,15.397-23.122,33.289-29.041,52.452H50.4z M205.352,292.005     c-18.341-9.753-40.461-10.695-59.962-1.814c-6.569,2.991-12.469,6.928-17.596,11.589c-24.349-23.753-38.18-56.335-38.18-90.541     c0-57.493,37.713-106.426,91.637-121.645c-15.554,23.737-23.984,51.718-23.984,80.313c0,43.037,18.605,83.344,51.195,111.253     C207.274,284.723,206.223,288.336,205.352,292.005z"/>
			<path id="XMLID_2407_" d="M330.087,253.727c0.015,0,0.03,0,0.045,0c5.501,0,9.974-4.448,9.999-9.956     c0.024-5.522-4.433-10.02-9.956-10.044l-0.373-0.001c-5.523,0-10,4.477-10,10s4.477,10,10,10L330.087,253.727z"/>
			<path id="XMLID_2405_" d="M397.71,321.633c0,5.523,4.477,10,10,10s10-4.477,10-10c0-31.263-16.822-60.429-43.901-76.115     c-4.778-2.769-10.897-1.138-13.665,3.641c-2.769,4.779-1.139,10.897,3.641,13.666C384.711,274.947,397.71,297.481,397.71,321.633     z"/>
			<path id="XMLID_2402_" d="M197.677,492.003c-2.64,0-5.21,1.07-7.07,2.93c-1.87,1.86-2.93,4.44-2.93,7.07     c0,2.63,1.06,5.21,2.93,7.07c1.86,1.86,4.43,2.93,7.07,2.93c2.63,0,5.21-1.07,7.07-2.93c1.86-1.86,2.93-4.44,2.93-7.07     c0-2.63-1.07-5.21-2.93-7.07C202.887,493.073,200.307,492.003,197.677,492.003z"/>
		</g>
	</g>
</g>















</svg>
