<svg id="Capa_1" enable-background="new 0 0 512 512" height="512" viewBox="0 0 512 512" width="512" xmlns="http://www.w3.org/2000/svg"><g><g><path clip-rule="evenodd" d="m116.558 271.372c0-15.669 12.841-28.452 28.516-28.452-8.334-22.428-3.486-42.905 8.815-55.971-6.349-64.258 15.08-128.714 58.817-176.398-26.446 2.97-52.836 10.663-77.95 23.418-112.362 57.102-157.063 194.3-99.833 306.44 6.746 13.208 14.626 25.483 23.442 36.767.992-.085 2.013-.141 3.033-.141.68 0 1.361.028 2.041.057 7.993-13.462 22.733-22.513 39.57-22.513 19.247 0 35.715 11.794 42.575 28.537 3.175-.877 6.519-1.358 9.978-1.358 18.51 0 33.845 13.576 36.537 31.309 24.462 0 44.276 19.798 44.276 44.206 0 2.574-.227 5.091-.652 7.551 35.8.453 72.196-7.495 106.324-24.832 25.114-12.755 46.855-29.527 64.826-49.127-79.878 8.994-160.464-24.86-209.36-91.041h-52.439c-15.676 0-28.516-12.812-28.516-28.452z" fill="#ffe6b4" fill-rule="evenodd"/></g><g><path clip-rule="evenodd" d="m54.935 501.45h137.164c21.854 0 40.024-15.81 43.624-36.626.425-2.461.652-4.978.652-7.551 0-24.408-19.814-44.206-44.276-44.206-2.693-17.733-18.028-31.309-36.537-31.309-3.458 0-6.803.481-9.978 1.358-6.86-16.743-23.328-28.537-42.575-28.537-16.837 0-31.577 9.05-39.57 22.513-.68-.028-1.361-.057-2.041-.057-1.02 0-2.041.057-3.033.141-17.489 1.527-31.208 16.178-31.208 34.052 0 3.168.425 6.279 1.247 9.192-11.168 8.174-18.396 21.325-18.396 36.173-.001 24.776 20.124 44.857 44.927 44.857z" fill="#cfd3df" fill-rule="evenodd"/></g><g><path clip-rule="evenodd" d="m197.513 299.824h177.5c7.427 0 14.201-2.857 19.275-7.551 8.872-6.731 14.626-17.394 14.626-29.329 0-12.869-6.69-24.266-16.809-30.884 8.022-30.884-20.465-47.232-41.583-34.901.255-2.065.397-4.158.397-6.307 0-26.331-21.372-47.684-47.79-47.684-7.2 0-14.031 1.584-20.154 4.44-9.411-10.38-23.045-16.913-38.181-16.913-25.142 0-46.09 17.988-50.625 41.745-16.185-1.527-30.556 4.186-40.279 14.509-12.302 13.067-17.149 33.543-8.815 55.971-15.675 0-28.516 12.784-28.516 28.452 0 15.64 12.841 28.452 28.516 28.452z" fill="#cfd3df" fill-rule="evenodd"/></g><g><path clip-rule="evenodd" d="m342.075 110.359 17.659-32.298 32.371-17.62-32.371-17.592-17.659-32.299-17.631 32.299-32.371 17.592 32.371 17.62z" fill="#ffcd69" fill-rule="evenodd"/></g><g><path clip-rule="evenodd" d="m469.629 165.821 32.371-17.591-32.371-17.62-17.659-32.299-17.631 32.299-32.37 17.62 32.37 17.591 17.631 32.299z" fill="#ffcd69" fill-rule="evenodd"/></g><g><path d="m400.714 299.946c11.406-8.842 18.2-22.636 18.2-37.002 0-13.527-5.815-26.202-15.832-35.057 1.936-15.119-3.232-28.696-14.44-37.184-8.164-6.184-18.292-8.67-28.209-7.34-3.688-28.283-27.981-50.195-57.304-50.195-6.122 0-12.076.932-17.778 2.778-11.153-9.761-25.588-15.25-40.557-15.25-26.595 0-49.87 17.035-58.246 41.552-8.404.342-16.453 2.394-23.703 5.937-.936-55.492 19.43-109.661 57.232-150.875 2.818-3.073 3.435-7.572 1.545-11.289-1.89-3.718-5.892-5.868-10.031-5.407-28.32 3.18-55.694 11.403-81.366 24.441-42.247 21.475-76.758 54.564-99.803 95.689-2.7 4.818-.983 10.912 3.835 13.612 4.818 2.701 10.913.982 13.612-3.835 21.102-37.657 52.714-67.962 91.414-87.636 15.638-7.942 31.962-13.935 48.766-17.916-33.084 45.67-49.041 101.986-44.463 158.647-.2.251-.411.49-.607.745-10.807 14.064-14.461 32.075-10.571 50.695-15.036 5.241-25.852 19.541-25.852 36.317 0 21.202 17.278 38.452 38.516 38.452h47.489c45.045 58.281 114.956 92.254 188.12 92.47-13.109 11.217-27.555 20.853-43.166 28.783-28.762 14.611-59.405 22.509-91.205 23.608-1.231-26.025-20.925-47.306-46.261-51.038-6.352-18.64-24.237-31.889-44.49-31.889-1.463 0-2.927.068-4.384.204-9.976-16.862-28.111-27.384-48.169-27.384-16.245 0-31.644 7.175-42.175 19.188-6.341-8.854-12.049-18.203-17.004-27.905-19.752-38.683-27.446-81.85-22.25-124.833.663-5.483-3.245-10.465-8.727-11.128-5.491-.664-10.465 3.245-11.128 8.727-5.675 46.947 2.726 94.089 24.294 136.329 4.697 9.196 10.02 18.099 15.869 26.615-14.637 7.215-24.731 22.279-24.731 39.656 0 1.781.104 3.547.31 5.289-11.029 10.308-17.457 24.864-17.457 40.076 0 30.248 24.64 54.856 54.927 54.856h137.164c23.795 0 44.047-15.37 51.355-36.681 35.65-.75 71.145-9.617 103.121-25.86 25.64-13.023 48.407-30.278 67.669-51.285 2.817-3.074 3.433-7.574 1.543-11.291-1.891-3.717-5.888-5.874-10.033-5.404-70.492 7.934-140.439-19.048-187.191-71.104h156.45c9.529 0 18.635-3.504 25.702-9.878zm-208.615 191.504h-137.164c-19.259 0-34.928-15.637-34.928-34.856 0-11.208 5.213-21.452 14.302-28.103 3.37-2.466 4.853-6.767 3.718-10.786-.578-2.049-.872-4.228-.872-6.476 0-13.34 10.875-24.194 24.242-24.194.542 0 1.083.025 1.625.048 3.683.149 7.137-1.724 9.015-4.886 6.453-10.868 18.32-17.619 30.971-17.619 14.685 0 27.764 8.765 33.322 22.328 1.918 4.684 7.035 7.195 11.916 5.848 2.395-.662 4.856-.997 7.315-.997 13.219 0 24.676 9.806 26.651 22.81.742 4.887 4.944 8.499 9.887 8.499 18.9 0 34.276 15.345 34.276 34.206-.001 18.846-15.377 34.178-34.276 34.178zm-47.025-201.626c-10.21 0-18.516-8.278-18.516-18.453 0-10.174 8.306-18.452 18.516-18.452 3.274 0 6.341-1.603 8.21-4.291s2.304-6.122 1.164-9.191c-5.916-15.926-4.316-31.559 4.392-42.891 7.111-9.255 17.916-14.358 30.102-14.358 1.407 0 2.834.068 4.275.206 5.136.491 9.806-3.01 10.774-8.08 3.719-19.481 20.878-33.62 40.802-33.62 7.563 0 14.917 2.085 21.297 5.891-12.92 10.831-20.752 27.012-20.752 44.266 0 5.523 4.477 10 10 10 5.522 0 10-4.477 10-10 0-14.478 8.453-27.8 21.554-34.053.103-.044.208-.082.31-.129 4.982-2.324 10.341-3.503 15.927-3.503 20.838 0 37.79 16.905 37.79 37.685 0 1.669-.105 3.331-.321 5.082-.466 3.773 1.248 7.484 4.423 9.576 3.175 2.091 7.263 2.203 10.545.285 6.818-3.982 15.063-3.647 21.002.851 6.27 4.749 8.406 13.096 5.859 22.9-1.079 4.154.613 8.534 4.206 10.883 7.69 5.03 12.282 13.447 12.282 22.516 0 8.431-3.89 16.217-10.671 21.362-.26.197-.509.406-.748.627-3.408 3.154-7.842 4.891-12.482 4.891z"/><path d="m287.292 69.224 29.784 16.212 16.221 29.715c1.752 3.21 5.117 5.207 8.773 5.208h.004c3.655 0 7.02-1.995 8.774-5.203l16.249-29.719 29.788-16.214c3.218-1.752 5.22-5.123 5.219-8.787s-2.006-7.034-5.225-8.783l-29.784-16.186-16.246-29.714c-1.754-3.208-5.118-5.203-8.774-5.203-.001 0-.002 0-.004 0-3.656.001-7.021 1.999-8.773 5.208l-16.22 29.712-29.78 16.184c-3.219 1.749-5.224 5.119-5.225 8.783 0 3.664 2.002 7.035 5.219 8.787zm41.927-17.589c1.69-.918 3.08-2.306 4.002-3.995l8.86-16.232 8.879 16.238c.923 1.687 2.311 3.071 3.999 3.989l16.216 8.812-16.222 8.83c-1.686.918-3.072 2.301-3.993 3.986l-8.879 16.238-8.86-16.232c-.921-1.687-2.309-3.073-3.996-3.992l-16.222-8.83z"/><path d="m506.781 139.447-29.789-16.214-16.248-29.719c-1.754-3.207-5.118-5.203-8.774-5.203 0 0-.002 0-.003 0-3.657.001-7.022 1.999-8.774 5.208l-16.221 29.715-29.785 16.212c-3.218 1.751-5.22 5.123-5.219 8.787s2.006 7.034 5.226 8.783l29.78 16.184 16.219 29.711c1.752 3.21 5.117 5.207 8.774 5.208h.002c3.656 0 7.021-1.995 8.775-5.203l16.246-29.716 29.784-16.185c3.22-1.75 5.225-5.12 5.226-8.783s-2.001-7.034-5.219-8.785zm-41.926 17.588c-1.689.918-3.078 2.303-4 3.989l-8.878 16.238-8.86-16.232c-.922-1.689-2.311-3.076-4.003-3.995l-16.216-8.812 16.223-8.83c1.688-.919 3.075-2.305 3.996-3.992l8.86-16.232 8.878 16.238c.921 1.684 2.308 3.068 3.993 3.986l16.223 8.83z"/><path d="m16.698 175.526c1.453.739 3 1.089 4.526 1.089 3.643 0 7.156-1.999 8.921-5.468l.029-.057c2.504-4.923.529-10.915-4.394-13.418-4.922-2.504-10.957-.515-13.461 4.408s-.543 10.943 4.379 13.446z"/></g></g></svg>