<?xml version="1.0" encoding="iso-8859-1"?>
<!-- Generator: Adobe Illustrator 19.0.0, SVG Export Plug-In . SVG Version: 6.00 Build 0)  -->
<svg version="1.1" id="Capa_1" xmlns="http://www.w3.org/2000/svg" xmlns:xlink="http://www.w3.org/1999/xlink" x="0px" y="0px"
	 viewBox="0 0 512 512" style="enable-background:new 0 0 512 512;" xml:space="preserve">
<path style="fill:#FFE44C;" d="M403.909,245.911c-12.251-10.961-28.02-16.996-44.405-16.996c-10.623,0-20.723,2.393-30.02,7.114
	l-11.292,5.733l-0.319-12.66c-0.869-34.466-20.324-66.125-50.773-82.625l-5.71-3.094l1.859-6.222
	c10.256-34.335,38.45-60.43,73.579-68.102l6.793-1.483c2.478-0.541,4.69,1.654,4.167,4.135l-1.431,6.804
	c-4.026,19.136-3.162,38.097,2.501,54.834c6.779,20.039,20.063,35.261,37.407,42.862c8.102,3.552,16.801,5.352,25.853,5.352
	c10.459,0,21.03-2.377,31.419-7.068l7.831-3.534c2.571-1.161,5.388,1.045,4.876,3.819l-1.556,8.449
	c-0.177,0.956-0.365,1.909-0.569,2.859c-5.282,24.67-19.61,46.136-40.342,60.445l-5.18,3.575L403.909,245.911z"/>
<path style="fill:#FFC200;" d="M359.505,207.93c-7.682,0-15.208,0.975-22.448,2.884c-6.983-39.074-33.316-71.523-68.694-87.061
	c-2.009,4.305-3.727,8.779-5.11,13.408l-1.859,6.222l5.71,3.094c30.449,16.499,49.902,48.159,50.773,82.625l0.319,12.66
	l11.292-5.733c9.297-4.721,19.397-7.114,30.02-7.114c16.384,0,32.154,6.037,44.405,16.996l4.691,4.197l5.18-3.575
	c4.007-2.765,7.768-5.805,11.278-9.076C408.986,219.357,385.556,207.93,359.505,207.93z"/>
<g>
	<path style="fill:#C3FFF9;" d="M432.303,130.448c-20.386,0-36.973-16.586-36.973-36.973s16.587-36.973,36.973-36.973
		c17.174,0,32.215,12.018,36.036,28.679c3.736-2.207,7.99-3.371,12.347-3.371c13.409,0,24.319,10.909,24.319,24.318
		s-10.91,24.319-24.319,24.319H432.303z"/>
	<path style="fill:#C3FFF9;" d="M56.458,133.446c-27.274,0-49.463-22.19-49.463-49.463s22.19-49.463,49.463-49.463
		c23.053,0,43.236,16.19,48.261,38.597c5.037-3.026,10.794-4.622,16.691-4.622c17.908,0,32.476,14.569,32.476,32.476
		s-14.568,32.476-32.476,32.476H56.458z"/>
</g>
<path style="fill:#AFF2D8;" d="M362.597,363.276H132.921c-40.06,0-73.684-32.775-73.464-72.834
	c0.204-37.107,27.983-67.79,64.844-71.617c6.313-48.466,47.896-84.963,96.888-84.963c53.879,0,97.714,43.835,97.714,97.715
	c0,2.481-0.097,4.99-0.289,7.497c-0.082,1.072,1.129,1.755,2.009,1.134c11.421-8.056,24.779-12.293,38.88-12.293
	c37.319,0,67.68,30.362,67.68,67.681c0,35.379-27.626,65.025-62.893,67.493l-0.874,0.199L362.597,363.276z"/>
<path style="fill:#8BF2E6;" d="M74.011,133.446c2.024,0,2.649-2.78,0.802-3.606c-17.534-7.841-29.783-25.441-29.783-45.857
	c0-0.705,0.015-1.407,0.044-2.105c0.132-3.155,2.753-5.635,5.911-5.635h14.335c5.284,0,9.842-4.107,9.976-9.389
	c0.137-5.436-4.228-9.886-9.632-9.888c-5.443-0.002-7.996-6.687-3.949-10.326c2.164-1.947,4.499-3.704,6.978-5.253
	c2.272-1.419,1.791-4.892-0.814-5.517c-3.684-0.883-7.511-1.35-11.422-1.35c-27.593,0-49.98,22.709-49.454,50.42
	c0.514,27.08,23.2,48.507,50.284,48.507H74.011z"/>
<path style="fill:#87CEB7;" d="M107.921,291.899c0-36.78,26.44-67.475,62.226-73.237h47.657c8.515,0,15.417-6.902,15.417-15.417l0,0
	c0-8.515-6.902-15.417-15.417-15.417H199.45c-7.447,0-11.833-8.414-7.521-14.485c9.979-14.051,23.477-25.355,39.117-32.729
	c3.082-1.453,2.312-6.054-1.081-6.359c-2.89-0.26-5.817-0.393-8.774-0.393c-48.991,0-90.574,36.496-96.888,84.963
	c-36.861,3.827-64.64,34.511-64.844,71.618c-0.22,40.059,33.404,72.833,73.464,72.833h16.438c2.426,0,3.192-3.299,1-4.341
	C125.294,347.013,107.921,321.454,107.921,291.899z"/>
<g>
	<path style="fill:#C3FFF9;" d="M247.901,403.644c-4.659,2.042-8.378,4.087-9.371,5.298c-1.645,2.294-1.354,5.374,0.674,6.828
		c1.24,0.889,2.591,0.795,3.287,0.664c1.344-0.26,2.552-1.05,3.405-2.228C246.721,412.861,247.462,408.695,247.901,403.644z"/>
	<path style="fill:#C3FFF9;" d="M340.832,403.644c-4.659,2.042-8.378,4.087-9.371,5.298c-1.645,2.294-1.354,5.374,0.674,6.828
		c1.239,0.889,2.592,0.795,3.287,0.664c1.344-0.26,2.552-1.05,3.405-2.228C339.652,412.861,340.394,408.695,340.832,403.644z"/>
	<path style="fill:#C3FFF9;" d="M161.964,403.644c-4.659,2.042-8.378,4.087-9.371,5.298c-1.645,2.294-1.354,5.374,0.673,6.828
		c1.24,0.889,2.592,0.795,3.287,0.664c1.344-0.26,2.552-1.05,3.406-2.228C160.784,412.861,161.526,408.695,161.964,403.644z"/>
	<path style="fill:#C3FFF9;" d="M192.942,456.605c-4.659,2.042-8.378,4.087-9.371,5.298c-1.645,2.294-1.354,5.374,0.674,6.828
		c1.24,0.888,2.591,0.796,3.287,0.664c1.344-0.26,2.552-1.05,3.405-2.228C191.761,465.822,192.503,461.656,192.942,456.605z"/>
	<path style="fill:#C3FFF9;" d="M232.349,403.872l-0.165,0.202l-0.151,0.212c-4.224,5.892-3.098,13.959,2.514,17.983
		c2.048,1.468,4.486,2.244,7.051,2.244c0.799,0,1.604-0.076,2.409-0.229c3.344-0.646,6.313-2.559,8.362-5.387l0.18-0.247
		l0.159-0.259c0.675-1.099,2.255-3.671,3.158-14.054l1.167-13.423l-12.341,5.409C235.09,400.531,233.17,402.872,232.349,403.872z"/>
	<path style="fill:#C3FFF9;" d="M337.623,396.322c-9.601,4.209-11.521,6.55-12.343,7.549l-0.165,0.202l-0.151,0.212
		c-4.224,5.892-3.098,13.959,2.511,17.981c2.048,1.47,4.488,2.246,7.054,2.246c0.8,0,1.605-0.076,2.409-0.229
		c3.344-0.646,6.313-2.559,8.362-5.387l0.18-0.247l0.159-0.259c0.676-1.099,2.255-3.671,3.158-14.054l1.167-13.423L337.623,396.322z
		"/>
	<path style="fill:#C3FFF9;" d="M146.413,403.872l-0.165,0.202l-0.151,0.212c-4.224,5.892-3.098,13.959,2.514,17.983
		c2.048,1.468,4.486,2.244,7.051,2.244c0.801,0,1.605-0.076,2.409-0.229c3.344-0.646,6.313-2.559,8.362-5.387l0.18-0.247
		l0.159-0.259c0.675-1.099,2.255-3.671,3.158-14.054l1.167-13.423l-12.341,5.409C149.154,400.531,147.233,402.872,146.413,403.872z"
		/>
	<path style="fill:#C3FFF9;" d="M177.39,456.833l-0.165,0.202l-0.151,0.212c-4.224,5.892-3.098,13.959,2.515,17.984
		c2.049,1.468,4.487,2.243,7.05,2.243c0.001,0,0.001,0,0.001,0c0.801,0,1.607-0.077,2.408-0.23c3.344-0.646,6.313-2.559,8.362-5.387
		l0.18-0.247l0.159-0.259c0.676-1.099,2.255-3.671,3.158-14.054l1.167-13.423l-12.341,5.409
		C180.131,453.492,178.21,455.833,177.39,456.833z"/>
	<path style="fill:#C3FFF9;" d="M271.321,456.833l-0.165,0.202l-0.151,0.212c-4.224,5.892-3.098,13.959,2.513,17.983
		c2.048,1.468,4.487,2.244,7.052,2.245c0,0,0,0,0.001,0c0.801,0,1.607-0.077,2.408-0.23c3.344-0.646,6.313-2.559,8.362-5.387
		l0.18-0.247l0.159-0.259c0.675-1.099,2.255-3.671,3.158-14.054l1.167-13.423l-12.341,5.409
		C274.062,453.492,272.141,455.833,271.321,456.833z"/>
	<path style="fill:#C3FFF9;" d="M286.872,456.605c-4.659,2.042-8.378,4.087-9.371,5.298c-1.645,2.294-1.354,5.374,0.673,6.828
		c1.239,0.888,2.591,0.796,3.287,0.664c1.344-0.26,2.552-1.05,3.405-2.228C285.692,465.822,286.434,461.656,286.872,456.605z"/>
</g>
<path style="fill:#8BF2E6;" d="M464.157,130.448c-18.08,0-33.171-13.044-36.354-30.217c-0.673-3.629,2.149-6.974,5.841-6.974h10.13
	c3.361,0,6.29-2.589,6.391-5.948c0.104-3.475-2.682-6.325-6.133-6.325h-4.152c-5.241,0-8.126-6.023-4.912-10.161
	c2.723-3.507,6.062-6.512,9.856-8.849c1.351-0.832,1.133-2.863-0.364-3.389c-3.832-1.349-7.929-2.08-12.157-2.08
	c-20.683,0-37.453,17.071-36.963,37.863c0.477,20.184,17.466,36.082,37.656,36.082h31.162V130.448z"/>
<path d="M263.296,392.521c-0.033-2.377-1.193-4.598-3.126-5.983c-1.932-1.386-4.405-1.773-6.67-1.042
	c-6.493,2.095-22.135,7.72-27.123,14.674c-6.488,9.047-4.654,21.509,4.09,27.78c3.271,2.346,7.108,3.565,11.085,3.565
	c1.249,0,2.514-0.121,3.777-0.365c5.132-0.99,9.666-3.914,12.764-8.234C263.08,415.963,263.394,399.343,263.296,392.521z
	 M245.895,414.205c-0.853,1.178-2.061,1.969-3.405,2.228c-0.695,0.133-2.046,0.226-3.287-0.664
	c-2.028-1.455-2.317-4.535-0.674-6.828c0.993-1.211,4.713-3.256,9.371-5.298C247.462,408.695,246.721,412.861,245.895,414.205z"/>
<path d="M353.101,386.538c-1.932-1.386-4.404-1.773-6.67-1.042c-6.493,2.095-22.135,7.72-27.123,14.674
	c-6.488,9.047-4.654,21.509,4.09,27.78c3.271,2.346,7.108,3.565,11.085,3.565c1.249,0,2.514-0.121,3.777-0.365
	c5.132-0.99,9.666-3.914,12.764-8.234c4.986-6.953,5.3-23.573,5.202-30.396C356.194,390.144,355.034,387.924,353.101,386.538z
	 M338.827,414.205c-0.853,1.178-2.061,1.969-3.405,2.228c-0.695,0.133-2.048,0.226-3.287-0.664
	c-2.027-1.455-2.317-4.535-0.674-6.828c0.993-1.211,4.713-3.256,9.371-5.298C340.394,408.695,339.652,412.861,338.827,414.205z"/>
<path d="M172.157,422.917c4.986-6.953,5.3-23.573,5.202-30.396c-0.033-2.377-1.193-4.598-3.126-5.983
	c-1.932-1.386-4.404-1.773-6.67-1.042c-6.493,2.095-22.135,7.72-27.123,14.674c-6.488,9.047-4.654,21.509,4.09,27.78
	c3.271,2.346,7.108,3.565,11.085,3.565c1.249,0,2.514-0.121,3.777-0.365C164.525,430.16,169.059,427.237,172.157,422.917z
	 M159.959,414.205c-0.853,1.178-2.061,1.969-3.406,2.228c-0.694,0.133-2.046,0.226-3.287-0.664
	c-2.027-1.455-2.317-4.535-0.673-6.828c0.993-1.211,4.713-3.256,9.371-5.298C161.526,408.695,160.784,412.861,159.959,414.205z"/>
<path d="M205.21,439.499c-1.932-1.386-4.404-1.772-6.67-1.042c-6.493,2.095-22.135,7.72-27.123,14.674
	c-6.488,9.047-4.654,21.509,4.09,27.78c3.271,2.346,7.108,3.565,11.085,3.565c1.249,0,2.514-0.121,3.777-0.365
	c5.132-0.99,9.666-3.914,12.764-8.234c4.986-6.953,5.3-23.573,5.202-30.396C208.303,443.105,207.143,440.885,205.21,439.499z
	 M190.936,467.166c-0.853,1.178-2.061,1.969-3.405,2.228c-0.695,0.133-2.046,0.226-3.287-0.664
	c-2.028-1.455-2.317-4.535-0.674-6.828c0.993-1.211,4.713-3.256,9.371-5.298C192.503,461.656,191.761,465.822,190.936,467.166z"/>
<path d="M299.141,439.499c-1.932-1.386-4.404-1.772-6.67-1.042c-6.493,2.095-22.135,7.72-27.123,14.674
	c-6.488,9.047-4.654,21.509,4.09,27.78c3.271,2.346,7.108,3.565,11.085,3.565c1.249,0,2.514-0.121,3.777-0.365
	c5.132-0.99,9.666-3.914,12.764-8.234c4.986-6.953,5.3-23.573,5.202-30.396C302.234,443.105,301.074,440.885,299.141,439.499z
	 M284.867,467.166c-0.853,1.178-2.061,1.969-3.405,2.228c-0.695,0.133-2.047,0.226-3.287-0.664
	c-2.027-1.455-2.317-4.535-0.673-6.828c0.993-1.211,4.713-3.256,9.371-5.298C286.434,461.656,285.692,465.822,284.867,467.166z"/>
<path d="M121.41,61.499c-4.223,0-8.385,0.673-12.345,1.978c-8.326-21.285-29.166-35.952-52.607-35.952
	C25.327,27.524,0,52.851,0,83.982c0,22.113,12.78,41.293,31.339,50.551c4.958,2.473,10.792-1.07,10.792-6.611v-0.165
	c0-2.848-1.652-5.403-4.197-6.679c-13.592-6.815-22.945-20.883-22.945-37.096c0-22.866,18.603-41.469,41.469-41.469
	c19.43,0,36.426,13.712,40.526,32.647c0.362,1.671,1.142,3.253,2.432,4.375c2.596,2.256,6.223,2.441,8.961,0.715
	c5.466-3.447,12.118-4.619,18.616-3.126c10.524,2.416,18.279,11.711,18.862,22.494c0.762,14.111-10.497,25.834-24.445,25.834H78.188
	c-4.097,0-7.418,3.321-7.418,7.418v0.154c0,4.097,3.321,7.418,7.418,7.418h42.482c21.554,0,39.691-16.971,40.2-38.52
	C161.395,79.724,143.491,61.499,121.41,61.499z"/>
<path d="M460.963,187.55c1.318-6.158,2.091-12.457,2.298-18.724c0.073-2.218-0.756-4.42-2.388-5.925
	c-2.571-2.369-6.323-2.621-9.144-0.811c-20.697,13.282-43.532,16.096-62.655,7.714c-32.18-14.105-46.487-57.035-33.278-99.86
	c0.962-3.123-0.192-6.603-3.091-8.507c-1.446-0.949-3.21-1.311-4.932-1.149c-20.99,1.976-40.738,10.125-57.12,23.571
	c-15.8,12.969-27.332,29.987-33.513,49.372c-11.217-4.113-23.325-6.364-35.95-6.364c-16.63,0-32.456,3.935-46.542,10.953
	c-4.551,2.267-5.564,8.312-1.97,11.906l0.112,0.112c2.231,2.231,5.648,2.841,8.472,1.432c12.082-6.028,25.658-9.414,39.928-9.414
	c49.471,0,89.72,40.248,89.72,89.721c0,3.378-0.196,6.813-0.583,10.216c-0.308,2.712,0.661,5.484,2.829,7.144
	c2.782,2.129,6.579,2.046,9.241-0.072c10.659-8.476,23.491-12.955,37.107-12.955c32.912,0,59.686,26.775,59.686,59.687
	c0,31.199-24.36,57.343-55.457,59.519c-0.385,0.027-231.854,0.168-231.854,0.168c-35.527,0-64.429-28.903-64.429-64.428
	c0-33.287,24.941-60.847,58.015-64.112c3.498-0.346,6.277-3.035,6.718-6.523c2.054-16.281,8.453-31.093,17.929-43.355
	c2.29-2.963,2.05-7.155-0.598-9.803c-0.035-0.035-0.071-0.071-0.106-0.106c-3.159-3.159-8.379-2.835-11.114,0.697
	c-9.969,12.878-17.027,28.173-20.097,44.962c-17.271,3.003-33.087,11.66-45.024,24.754c-13.355,14.652-20.711,33.646-20.711,53.486
	c0,43.791,35.627,79.417,79.418,79.417c0,0,233.922-0.119,234.644-0.347c38.077-3.563,67.656-35.879,67.656-74.328
	c0-16.655-5.484-32.05-14.736-44.485C440.767,235.791,455.418,213.448,460.963,187.55z M409.239,239.953
	c-13.216-11.825-30.646-19.033-49.734-19.033c-11.887,0-23.297,2.729-33.639,7.98c-0.974-38.627-22.973-72.122-54.954-89.451
	c9.438-31.599,35.787-55.627,67.625-62.58c-4.282,20.354-3.367,40.954,2.752,59.041c7.508,22.194,22.341,39.107,41.77,47.622
	c19.741,8.654,42.365,7.912,63.771-1.751c-0.162,0.879-0.336,1.757-0.523,2.63C441.424,207.21,428.313,226.791,409.239,239.953z"/>
<path d="M480.686,74.816c-2.75,0-5.468,0.36-8.091,1.061c-6.886-15.691-22.642-26.37-40.292-26.37
	c-24.244,0-43.968,19.723-43.968,43.968c0,13.727,6.326,26,16.214,34.067c4.84,3.948,12.101,0.485,12.101-5.762v-0.191
	c0-2.201-0.97-4.298-2.674-5.693c-6.496-5.317-10.652-13.391-10.652-22.421c0-15.979,13-28.979,28.979-28.979
	c13.613,0,25.516,9.631,28.342,22.914c0.414,1.947,1.553,3.713,3.214,4.809c2.457,1.622,5.569,1.644,8.011,0.171
	c1.446-0.871,2.96-1.642,4.597-2.054c11.209-2.829,21.253,6.026,20.506,16.936c-0.574,8.369-8.343,15.181-16.732,15.181h-27.534
	c-4.097,0-7.418,3.321-7.418,7.418v0.154c0,4.097,3.321,7.418,7.418,7.418h27.313c17.038,0,31.46-13.334,31.966-30.366
	C512.512,89.381,498.268,74.816,480.686,74.816z"/>
<g>
</g>
<g>
</g>
<g>
</g>
<g>
</g>
<g>
</g>
<g>
</g>
<g>
</g>
<g>
</g>
<g>
</g>
<g>
</g>
<g>
</g>
<g>
</g>
<g>
</g>
<g>
</g>
<g>
</g>
</svg>
