<svg height="511pt" viewBox="1 -5 511.999 511" width="511pt" xmlns="http://www.w3.org/2000/svg"><path d="m330.339844 307.308594c-.53125 2.007812-1.644532 3.914062-3.441406 5.511718-52.828126 47.042969-130.808594 60.363282-198.429688 27.671876-87.578125-42.359376-125.898438-147.488282-85.960938-236.191407 20.917969-46.460937 58.839844-79.566406 102.914063-95.554687 1.714844-.621094 3.414063-.8125 5.007813-.640625 7.476562.75 12.808593 9.242187 8.621093 16.742187-67.871093 121.570313 22.445313 270.625 160.246094 268.289063 8.011719-.132813 12.800781 7.496093 11.042969 14.171875zm0 0" fill="#f29500"/><path d="m330.339844 307.308594c-45.882813 20.917968-100.253906 22.050781-149.046875-1.546875-85.253907-41.234375-122.402344-143.914063-83.316407-230.699219 12.285157-27.28125 30.53125-49.863281 52.453126-66.957031 7.476562.75 12.808593 9.242187 8.621093 16.742187-67.871093 121.570313 22.445313 270.625 160.246094 268.289063 8.011719-.132813 12.800781 7.496093 11.042969 14.171875zm0 0" fill="#ffb52d"/><path d="m483.699219 402.804688h-262.355469c-16.359375 0-45.820312-18.371094-45.820312-51.011719 0-13.800781 5.140624-25.585938 13.21875-34.328125 15.347656-16.632813 41.304687-22.3125 62.734374-10.1875 2.609376 1.476562 5.941407.039062 6.59375-2.890625 6.855469-31.234375 34.691407-54.613281 67.992188-54.613281 31.105469 0 57.457031 20.417968 66.378906 48.582031.671875 2.117187 2.828125 3.402343 5.027344 3.019531 31.628906-5.519531 57.363281 24.511719 49.183594 54.140625-.792969 2.890625 1.335937 5.742187 4.328125 5.742187h32.226562c11.265625 0 20.847657 8.761719 21.25 20.015626.421875 11.8125-9.03125 21.53125-20.757812 21.53125zm0 0" fill="#2476ed"/><path d="m367.898438 402.804688h-146.554688c-16.359375 0-45.820312-18.371094-45.820312-51.011719 0-13.800781 5.140624-25.585938 13.21875-34.328125 8.984374-4.226563 19.011718-6.582032 29.582031-6.582032 8.8125 0 17.242187 1.632813 25 4.625 23.550781 9.0625 40.933593 30.5625 44.097656 56.449219 30.371094-22.613281 73.542969-4.90625 80.476563 30.847657zm0 0" fill="#0a66ea"/><path d="m336.46875 442.5c0 8.382812-1.9375 15.820312-5.109375 22.242188-9.152344 18.621093-28.546875 28.769531-40.710937 28.769531h-261.847657c-11.257812 0-20.847656-8.75-21.261719-20-.433593-11.816407 9.019532-21.546875 20.753907-21.546875h35.128906c1.847656 0 3.160156-1.808594 2.578125-3.558594-10.253906-30.773438 16.910156-62.914062 49.96875-56.054688 1.378906.285157 2.753906-.523437 3.152344-1.878906 8.46875-28.886718 35.179687-49.992187 66.808594-49.992187 8.8125 0 17.242187 1.636719 25.003906 4.628906 20.894531 8.042969 36.9375 25.878906 42.496094 47.878906.984374 3.90625 5.398437 5.800781 8.984374 3.96875 32.453126-16.589843 74.054688 6.273438 74.054688 45.542969zm0 0" fill="#0a4499"/><path d="m336.46875 442.5c0 8.382812-1.9375 15.820312-5.109375 22.242188h-218.101563c-11.257812 0-20.851562-8.746094-21.265624-19.996094-.433594-11.816406 9.023437-21.546875 20.753906-21.546875h31.386718c3.59375 0 6.230469-3.371094 5.367188-6.855469-7.167969-28.996094 17.777344-57.929688 48.605469-53.171875 2.691406.417969 5.3125-1.105469 6.167969-3.695313 1.675781-5.074218 3.917968-9.890624 6.660156-14.367187 20.894531 8.042969 36.9375 25.875 42.496094 47.878906.988281 3.90625 5.398437 5.800781 8.984374 3.96875 32.453126-16.589843 74.054688 6.273438 74.054688 45.542969zm0 0" fill="#0956c6"/><path d="m483.699219 353.730469h-28.894531c6.359374-32.433594-21.03125-64.371094-56.03125-60.164063-21.109376-59.703125-101.789063-69.839844-137.019532-16.800781-101.820312-34.136719-149.132812-153.417969-96.128906-248.253906 8.507812-15.261719-6.640625-32.730469-22.773438-26.839844-27.039062 9.816406-51.792968 25.925781-71.578124 46.589844-2.878907 3.003906-2.769532 7.769531.234374 10.652343 3 2.871094 7.765626 2.769532 10.636719-.242187 18.199219-19 40.964844-33.824219 65.847657-42.847656 3.253906-1.203125 6.1875 2.332031 4.484374 5.347656-57.132812 102.496094-7.261718 230.8125 102.140626 269.0625-1.152344 2.800781-2.136719 5.691406-2.949219 8.652344-31.859375-15.269531-70.894531 1.824219-81.132813 35.601562-7.027344 1.425781-13.742187 3.804688-19.976562 7.015625-107.144532-37.289062-150.292969-166.179687-86.519532-260.40625 2.339844-3.445312 1.433594-8.121094-2.007812-10.460937-3.441406-2.328125-8.121094-1.433594-10.449219 2.007812-41.929687 61.855469-42.929687 141.265625-4.4375 204 21.238281 34.601563 52.40625 60.394531 88.179688 75.167969-9.855469 8.574219-17.574219 19.652344-22.113281 32.460938-35.007813-4.226563-62.367188 27.785156-56.019532 60.164062h-28.894531c-15.609375 0-28.296875 12.699219-28.296875 28.296875 0 15.609375 12.6875 28.304687 28.296875 28.304687h16.46875c4.15625 0 7.527344-3.371093 7.527344-7.527343 0-4.167969-3.371094-7.527344-7.527344-7.527344h-16.46875c-7.308594 0-13.242187-5.945313-13.242187-13.25 0-7.296875 5.933593-13.238281 13.242187-13.238281h39.0625c5.398437 0 9.058594-5.539063 6.917969-10.511719-11.628906-26.832031 12.988281-56.511719 42.246094-48.761719 4.089843 1.082032 8.214843-1.421875 9.226562-5.429687 11.578125-45.671875 68.09375-62.308594 102.648438-29.992188 10.640624 9.96875 17.390624 23.253907 19.164062 37.671875.6875 5.726563 7.324219 8.578125 11.964844 5.128906 27.960937-20.8125 69.417968-1.71875 69.417968 34.898438 0 15.691406-7.808593 26.179688-14.355468 32.210938-8.441406 7.777343-18.105469 11.273437-23.9375 11.273437h-215.773438c-4.164062 0-7.527344 3.359375-7.527344 7.527344 0 4.15625 3.363282 7.527343 7.527344 7.527343h215.773438c21.75 0 53.347656-22.804687 53.347656-58.539062 0-11.734375-3.320312-22.804688-9.515625-32.167969h112.671875c4.164062 0 7.527344-3.375 7.527344-7.527343 0-4.167969-3.363282-7.527344-7.527344-7.527344h-127.195312c-17.167969-12.367188-39.980469-15.101563-59.632813-5.683594-8.894531-32.445312-38.464844-56.101562-73.203125-56.628906 10.941406-23.246094 42.503906-33.070313 65.34375-16.070313 4.617188 3.429688 11.273438.625 11.964844-5.128906 1.394531-11.460937 5.960937-22.027344 12.707031-30.625 31.894531-40.652344 96.476563-26.851563 109.105469 22.945313 1.003906 3.972656 5.097656 6.515624 9.226562 5.429687 29.21875-7.742187 53.886719 21.898437 42.246094 48.761719-2.136719 4.957031 1.5 10.507812 6.917969 10.507812h39.0625c7.308593 0 13.242187 5.945313 13.242187 13.242188 0 7.304687-5.933594 13.25-13.242187 13.25h-6.433594c-4.15625 0-7.527344 3.359375-7.527344 7.527344 0 4.152343 3.371094 7.527343 7.527344 7.527343h6.433594c15.609375 0 28.296875-12.699219 28.296875-28.304687 0-15.597656-12.6875-28.296875-28.296875-28.296875zm0 0"/><path d="m256.453125 140.390625h15.128906l-6.285156 6.289063c-4.757813 4.753906-1.324219 12.847656 5.324219 12.847656 4.871094 0 6.476562-3.992188 11.609375-8.488282v15.128907c0 4.15625 3.367187 7.527343 7.527343 7.527343 4.15625 0 7.527344-3.371093 7.527344-7.527343v-15.128907l6.285156 6.285157c2.941407 2.941406 7.707032 2.941406 10.644532 0 2.941406-2.941407 2.941406-7.707031 0-10.644531l-6.285156-6.289063h15.128906c4.15625 0 7.527344-3.367187 7.527344-7.527344 0-4.15625-3.371094-7.527343-7.527344-7.527343h-15.128906l6.285156-6.285157c2.941406-2.941406 2.941406-7.707031 0-10.644531-2.9375-2.941406-7.703125-2.941406-10.644532 0l-6.285156 6.285156v-15.128906c0-4.15625-3.371094-7.527344-7.527344-7.527344-4.160156 0-7.527343 3.371094-7.527343 7.527344v15.128906l-6.289063-6.285156c-2.9375-2.941406-7.707031-2.941406-10.644531 0-2.941406 2.9375-2.941406 7.703125 0 10.644531l6.285156 6.285157h-15.128906c-4.15625 0-7.527344 3.371093-7.527344 7.527343 0 4.160157 3.371094 7.527344 7.527344 7.527344zm0 0"/><path d="m437.867188 238.605469h15.128906l-6.289063 6.285156c-4.753906 4.753906-1.320312 12.851563 5.324219 12.851563 4.875 0 6.476562-3.992188 11.609375-8.492188v15.128906c0 4.15625 3.371094 7.527344 7.527344 7.527344 4.160156 0 7.527343-3.371094 7.527343-7.527344v-15.128906c5.140626 4.507812 6.734376 8.492188 11.609376 8.492188 1.925781 0 3.855468-.738282 5.324218-2.207032 2.941406-2.941406 2.941406-7.707031 0-10.644531l-6.285156-6.289063h15.128906c4.15625 0 7.527344-3.367187 7.527344-7.527343 0-4.15625-3.371094-7.527344-7.527344-7.527344h-15.128906l6.285156-6.285156c2.941406-2.941407 2.941406-7.707031 0-10.648438-2.941406-2.9375-7.707031-2.9375-10.644531 0l-6.289063 6.289063v-15.128906c0-4.15625-3.367187-7.527344-7.527343-7.527344-4.15625 0-7.527344 3.371094-7.527344 7.527344v15.128906l-6.285156-6.285156c-2.941407-2.941407-7.707031-2.941407-10.648438 0-2.9375 2.9375-2.9375 7.707031 0 10.644531l6.289063 6.285156h-15.128906c-4.15625 0-7.527344 3.371094-7.527344 7.527344 0 4.160156 3.371094 7.53125 7.527344 7.53125zm0 0"/><path d="m354.699219 56.324219h15.128906l-6.289063 6.285156c-2.9375 2.941406-2.9375 7.707031 0 10.648437 1.472657 1.46875 3.398438 2.203126 5.324219 2.203126 4.875 0 6.476563-3.988282 11.609375-8.492188v15.128906c0 4.160156 3.371094 7.527344 7.527344 7.527344s7.527344-3.367188 7.527344-7.527344v-15.125c5.140625 4.503906 6.734375 8.488282 11.609375 8.488282 1.925781 0 3.855469-.734376 5.324219-2.203126 2.941406-2.941406 2.941406-7.707031 0-10.648437l-6.285157-6.285156h15.125c4.160157 0 7.53125-3.371094 7.53125-7.527344s-3.371093-7.527344-7.53125-7.527344h-15.125l6.285157-6.289062c2.941406-2.9375 2.941406-7.703125 0-10.644531-2.941407-2.9375-7.707032-2.9375-10.644532 0l-6.289062 6.285156v-15.125c0-4.160156-3.371094-7.53125-7.527344-7.53125s-7.527344 3.371094-7.527344 7.53125v15.125l-6.285156-6.285156c-2.941406-2.9375-7.707031-2.9375-10.648438 0-2.9375 2.941406-2.9375 7.707031 0 10.644531l6.289063 6.289062h-15.128906c-4.15625 0-7.527344 3.371094-7.527344 7.527344s3.367187 7.527344 7.527344 7.527344zm0 0"/></svg>