<?xml version="1.0" encoding="iso-8859-1"?>
<!-- Generator: Adobe Illustrator 19.0.0, SVG Export Plug-In . SVG Version: 6.00 Build 0)  -->
<svg version="1.1" id="Capa_1" xmlns="http://www.w3.org/2000/svg" xmlns:xlink="http://www.w3.org/1999/xlink" x="0px" y="0px"
	 viewBox="0 0 513.353 513.353" style="enable-background:new 0 0 513.353 513.353;" xml:space="preserve">
<path style="fill:#B0BEC5;" d="M505.64,90.885c-5.066-3.236-11.518-3.36-16.704-0.32c-7.18,4.094-15.32,6.204-23.584,6.112
	c-26.51,0-48-21.49-48-48c-0.092-8.264,2.018-16.404,6.112-23.584c3.049-5.18,2.938-11.632-0.288-16.704
	c-3.255-5.039-9.033-7.86-15.008-7.328c-52.773,5.107-91.414,52.027-86.307,104.8c5.107,52.773,52.027,91.414,104.8,86.307
	c45.709-4.423,81.884-40.598,86.307-86.307C513.525,99.89,510.696,94.109,505.64,90.885z"/>
<path style="fill:#E3F2FD;" d="M417.352,160.676h-3.2c-17.606-86.594-102.076-142.52-188.67-124.915
	c-51.134,10.396-93.986,45.073-114.818,92.915C48.808,129.419-0.734,180.165,0.008,242.021s51.488,111.398,113.344,110.656h304
	c53.019,0,96-42.981,96-96S470.372,160.676,417.352,160.676z"/>
<path style="fill:#2196F3;" d="M132.2,391.589c-16.792,21.539-28.684,46.481-34.848,73.088c0,26.51,21.49,48,48,48s48-21.49,48-48
	l0,0c-6.164-26.607-18.056-51.549-34.848-73.088c-5.572-7.264-15.977-8.635-23.241-3.063
	C134.113,389.408,133.083,390.438,132.2,391.589z"/>
<path d="M417.352,352.677h-304c-61.856,0.742-112.602-48.8-113.344-110.656s48.8-112.602,110.656-113.344
	C145.943,47.659,240.22,10.58,321.238,45.858c47.841,20.832,82.518,63.684,92.915,114.818c53.019-0.884,96.716,41.381,97.6,94.4
	C512.636,308.096,470.372,351.793,417.352,352.677z M113.352,160.676c-44.183,0-80,35.817-80,80s35.817,80,80,80h304
	c35.346,0,64-28.654,64-64s-28.654-64-64-64c-4.585,0.031-9.157,0.47-13.664,1.312c-8.681,1.653-17.058-4.044-18.71-12.725
	c-0.087-0.459-0.155-0.922-0.202-1.387c-7.001-70.345-69.702-121.695-140.047-114.694c-49.635,4.94-91.879,38.263-108.241,85.382
	c-2.716,7.801-10.925,12.251-18.944,10.272C116.152,160.692,114.752,160.638,113.352,160.676z"/>
<path d="M145.352,512.677c-26.51,0-48-21.49-48-48l0,0c6.164-26.607,18.056-51.549,34.848-73.088
	c5.572-7.264,15.977-8.635,23.241-3.063c1.151,0.883,2.18,1.912,3.063,3.063c16.792,21.539,28.684,46.481,34.848,73.088
	C193.352,491.186,171.862,512.677,145.352,512.677L145.352,512.677z M145.352,430.341c-7.128,10.52-12.529,22.112-16,34.336
	c0,8.837,7.163,16,16,16s16-7.163,16-16C157.887,452.45,152.486,440.858,145.352,430.341z"/>
<path d="M337.352,512.677c-8.837,0-16-7.163-16-16v-96c0-8.837,7.163-16,16-16s16,7.163,16,16v96
	C353.352,505.513,346.189,512.677,337.352,512.677z"/>
<path d="M378.952,488.677c-2.8,0.013-5.552-0.728-7.968-2.144l-83.2-48c-7.623-4.469-10.18-14.271-5.712-21.895
	c4.427-7.552,14.102-10.144,21.712-5.817l83.2,48c7.652,4.419,10.274,14.204,5.855,21.857
	C389.976,485.637,384.679,488.688,378.952,488.677L378.952,488.677z"/>
<path d="M295.752,488.677c-8.837,0.017-16.014-7.132-16.031-15.969c-0.011-5.727,3.04-11.024,7.999-13.887l83.2-48
	c7.623-4.469,17.426-1.912,21.895,5.712c4.469,7.623,1.912,17.426-5.712,21.895c-0.061,0.036-0.122,0.071-0.183,0.106l-83.2,48
	C301.304,487.949,298.552,488.689,295.752,488.677z"/>
<path d="M417.352,192.676c-7.054,0.039-14.088-0.745-20.96-2.336c-8.637-1.867-14.126-10.382-12.259-19.019
	s10.382-14.126,19.019-12.259c0.201,0.043,0.401,0.091,0.6,0.142c4.464,1.001,9.026,1.494,13.6,1.472
	c29.811,0.001,55.675-20.582,62.368-49.632c-4.714,1.078-9.533,1.625-14.368,1.632c-35.346,0-64-28.654-64-64
	c-0.011-4.826,0.537-9.636,1.632-14.336c-22.778,5.299-40.9,22.516-47.36,44.992c-2.43,8.501-11.291,13.422-19.792,10.992
	S322.41,79.033,324.84,70.533c11.898-41.249,49.582-69.704,92.512-69.856c4.867-0.003,9.726,0.393,14.528,1.184
	c8.712,1.477,14.578,9.737,13.101,18.449c-0.521,3.071-1.926,5.923-4.045,8.207c-5.015,5.502-7.729,12.717-7.584,20.16
	c0,17.673,14.327,32,32,32c7.452,0.143,14.677-2.57,20.192-7.584c6.497-5.989,16.62-5.577,22.609,0.921
	c2.106,2.285,3.502,5.134,4.015,8.199c0.808,4.779,1.204,9.618,1.184,14.464C513.352,149.696,470.372,192.676,417.352,192.676z"/>
<g>
</g>
<g>
</g>
<g>
</g>
<g>
</g>
<g>
</g>
<g>
</g>
<g>
</g>
<g>
</g>
<g>
</g>
<g>
</g>
<g>
</g>
<g>
</g>
<g>
</g>
<g>
</g>
<g>
</g>
</svg>
