<?xml version="1.0"?>
<svg xmlns="http://www.w3.org/2000/svg" viewBox="0 0 64 64" width="512" height="512"><g id="night_thunder" data-name="night thunder"><path d="M53.6,22.75A13.292,13.292,0,0,1,49,47.94V48H36.25l3.32-5.65L41.18,39H31.64l1.48-8.53-6.21,9.97L25.18,43h9.73l-1.73,5.06L33,48H21.03A18.333,18.333,0,0,1,8.09,42.65,10.865,10.865,0,0,1,18.81,23.78a15.708,15.708,0,0,1,14.48-9.61,5.24,5.24,0,0,1,.56.02A13,13,0,0,0,53.6,22.75Z" style="fill:#acabb1"/><path d="M59.63,11.88a13,13,0,0,1-25.78,2.31,13.567,13.567,0,0,1-.21-1.93A12.952,12.952,0,0,1,37.4,2.63c0,.2,0,.39.01.59A13.019,13.019,0,0,0,50.89,15.73,12.9,12.9,0,0,0,59.63,11.88Z" style="fill:#57a4ff"/><polygon points="36.25 48 28.92 60.49 33.18 48.06 34.91 43 28.41 43 25.18 43 26.91 40.44 33.12 30.47 31.64 39 38.05 39 41.18 39 39.57 42.35 36.25 48" style="fill:#ffda44"/><path d="M55.451,22.65a13.94,13.94,0,0,0,5.181-10.763,1,1,0,0,0-1.712-.709,11.912,11.912,0,0,1-8.068,3.55A12,12,0,0,1,38.411,3.184c-.006-.164-.007-.325-.008-.557a1,1,0,0,0-1.709-.7A14.013,14.013,0,0,0,32.642,12.3c.011.3.048.594.078.89a16.664,16.664,0,0,0-14.407,9.273A11.867,11.867,0,0,0,7.458,43.433,19.213,19.213,0,0,0,21.03,49H31.8L27.978,60.163a1,1,0,0,0,1.808.83L36.821,49H49a.9.9,0,0,0,.405-.1A14.285,14.285,0,0,0,55.451,22.65ZM36.614,5.167A14.016,14.016,0,0,0,50.926,16.726a13.912,13.912,0,0,0,7.457-2.489,12,12,0,0,1-23.742-2.011A11.843,11.843,0,0,1,36.614,5.167Zm-.755,38.157A1,1,0,0,0,34.913,42H27.065l4.194-6.647-.6,3.476A1,1,0,0,0,31.641,40h7.948l-6.5,11.414Zm13.051,3.62a.915.915,0,0,0-.239.056H37.994l4.085-7.566a1,1,0,0,0-.9-1.434H32.83l1.276-7.361a1,1,0,0,0-1.834-.7l-7.921,12.5A1,1,0,0,0,25.178,44h8.336l-1.028,3H21.03A17.454,17.454,0,0,1,8.8,41.942a1.05,1.05,0,0,0-.165-.132,9.866,9.866,0,0,1,9.732-17.135,1.006,1.006,0,0,0,.794.043.993.993,0,0,0,.574-.55,14.675,14.675,0,0,1,13.326-8.989,14.021,14.021,0,0,0,13.57,10.6c.175,0,.352,0,.529-.009a14,14,0,0,0,6.488-1.863A12.286,12.286,0,0,1,48.91,46.944Z"/><path d="M17.386,26.378a7.771,7.771,0,0,0-3.511-.837,7.869,7.869,0,0,0-4.246,14.5l.271.176.229.226a1,1,0,1,0,1.41-1.418l-.3-.3a.929.929,0,0,0-.162-.131l-.362-.235a5.865,5.865,0,0,1,5.779-10.19,1,1,0,1,0,.895-1.789Z"/></g></svg>
