<svg id="Layer_1" enable-background="new 0 0 512 512" height="512" viewBox="0 0 512 512" width="512" xmlns="http://www.w3.org/2000/svg"><path d="m178.55 135.77c-11.53 12.77-18.55 29.68-18.55 48.23-32.643 0-58.974 27.981-55.721 61.65-54.909-11-96.279-59.5-96.279-117.65 0-66.27 53.731-120 120-120h32c-23.71 9.37-40 36.95-40 64 0 33.52 25.75 61.01 58.55 63.77z" fill="#ffdf81"/><path d="m178.55 135.77c-11.53 12.77-18.55 29.68-18.55 48.23-32.643 0-58.974 27.981-55.721 61.65-8.449-1.69-16.579-4.27-24.279-7.65v-11.65c0-30.93 25.07-56 56-56 0-16.41 5.49-31.54 14.75-43.65 8.221 5.01 17.68 8.22 27.8 9.07z" fill="#ffcd76"/><path d="m160 8c-8.471 3.34-16 9.01-22.17 16.16-99.004 4.997-148.56 121.135-86.301 196.32-26.589-22.01-43.529-55.27-43.529-92.48 0-66.27 53.731-120 120-120z" fill="#f9ecb4"/><circle cx="64" cy="200" fill="#ffcd76" r="8"/><circle cx="52" cy="188" fill="#ffcd76" r="4"/><path d="m432 296h-272c-30.93 0-56-25.07-56-56s25.07-56 56-56c0-47.91 45.994-82.413 91.92-69.21 52.411-71.932 165.158-48.807 185.34 37.4 37.31 2.69 66.74 33.82 66.74 71.81 0 39.76-32.24 72-72 72z" fill="#5989b3"/><g fill="#436786"><path d="m417.1 110.89c-46.079-37.029-114.104-28.239-149.18 19.9-46.024-13.231-91.92 21.386-91.92 69.21-45.061 0-70.916 50.225-46.779 86.78-15.201-10.01-25.221-27.22-25.221-46.78 0-30.93 25.07-56 56-56 0-47.91 45.994-82.413 91.92-69.21 40.366-55.401 122.233-57.325 165.18-3.9z"/><circle cx="144" cy="264" r="8"/><circle cx="132" cy="252" r="4"/></g><path d="m97.191 252.261c5.738 29.443 31.713 51.739 62.809 51.739h88c4.418 0 8-3.582 8-8s-3.582-8-8-8h-88c-26.468 0-48-21.533-48-48s21.532-48 48-48c4.418 0 8-3.581 8-8 0-42.558 40.912-73.244 81.709-61.521 27.254 7.831 46.291 33.129 46.291 61.521 0 4.419 3.582 8 8 8s8-3.581 8-8c0-31.505-18.765-59.95-46.817-72.79 52.11-56.823 146.736-32.16 164.288 42.804.798 3.41 3.721 5.904 7.214 6.156 33.26 2.397 59.315 30.435 59.315 63.83 0 35.29-28.71 64-64 64h-136c-4.418 0-8 3.582-8 8s3.582 8 8 8h136c44.112 0 80-35.888 80-80 0-39.794-29.603-73.503-68.398-79.162-25.023-86.327-137.742-109.874-194.836-39.078-25.612-5.462-53.304 1.775-73.198 21.595-27.142-4.094-47.568-27.473-47.568-55.355 0-24.373 15.021-48.688 34.94-56.56 8.179-3.232 5.843-15.44-2.94-15.44h-32c-70.579 0-128 57.42-128 128 0 58.898 40.544 110.273 97.191 124.261zm30.809-236.261h6.496c-13.769 14.296-22.496 34.91-22.496 56 0 32.394 21.597 60.603 52.391 69.29-6.569 10.362-10.831 22.324-12.038 35.165-30.202 3.611-53.991 28.345-56.172 58.958-47.007-13.89-80.181-57.571-80.181-107.413 0-61.757 50.243-112 112-112z"/><path d="m325.657 354.343c-3.125-3.124-8.189-3.124-11.314 0l-29.657 29.657h-20.686v-20.686l29.657-29.657c3.124-3.124 3.124-8.189 0-11.313-3.125-3.124-8.189-3.124-11.314 0l-18.343 18.342v-12.686c0-4.418-3.582-8-8-8s-8 3.582-8 8v12.686l-18.343-18.343c-3.125-3.124-8.189-3.124-11.314 0-3.124 3.124-3.124 8.189 0 11.313l29.657 29.658v20.686h-20.686l-29.657-29.657c-3.125-3.124-8.189-3.124-11.314 0-3.124 3.124-3.124 8.189 0 11.313l18.344 18.344h-12.687c-4.418 0-8 3.582-8 8s3.582 8 8 8h12.687l-18.344 18.343c-3.124 3.124-3.124 8.189 0 11.313 3.125 3.125 8.189 3.124 11.314 0l29.658-29.656h20.685v20.686l-29.657 29.657c-3.124 3.124-3.124 8.189 0 11.313 3.125 3.124 8.189 3.124 11.314 0l18.343-18.342v12.686c0 4.418 3.582 8 8 8s8-3.582 8-8v-12.686l18.343 18.343c3.125 3.125 8.189 3.124 11.314 0 3.124-3.124 3.124-8.189 0-11.313l-29.657-29.658v-20.686h20.685l29.657 29.657c1.563 1.562 3.609 2.343 5.657 2.343 7.061 0 10.714-8.6 5.657-13.657l-18.342-18.343h12.686c4.418 0 8-3.582 8-8s-3.582-8-8-8h-12.687l18.344-18.343c3.124-3.124 3.124-8.19 0-11.314z"/><path d="m493.657 402.343c-3.125-3.124-8.189-3.124-11.314 0l-29.657 29.657h-20.686v-20.686l29.657-29.657c3.124-3.124 3.124-8.189 0-11.313-3.125-3.124-8.189-3.124-11.314 0l-18.343 18.342v-12.686c0-4.418-3.582-8-8-8s-8 3.582-8 8v12.686l-18.343-18.343c-3.125-3.124-8.189-3.124-11.314 0-3.124 3.124-3.124 8.189 0 11.313l29.657 29.658v20.686h-20.686l-29.657-29.657c-3.125-3.124-8.189-3.124-11.314 0-3.124 3.124-3.124 8.189 0 11.313l18.344 18.344h-12.687c-4.418 0-8 3.582-8 8s3.582 8 8 8h12.686l-18.344 18.343c-3.124 3.124-3.124 8.189 0 11.313 3.125 3.125 8.189 3.124 11.314 0l29.659-29.656h20.685v20.686l-29.657 29.657c-3.124 3.124-3.124 8.189 0 11.313 3.125 3.124 8.189 3.124 11.314 0l18.343-18.342v12.686c0 4.418 3.582 8 8 8s8-3.582 8-8v-12.686l18.343 18.343c3.125 3.125 8.189 3.124 11.314 0 3.124-3.124 3.124-8.189 0-11.313l-29.657-29.658v-20.686h20.685l29.657 29.657c1.563 1.562 3.609 2.343 5.657 2.343 7.061 0 10.714-8.6 5.657-13.657l-18.342-18.343h12.686c4.418 0 8-3.582 8-8s-3.582-8-8-8h-12.687l18.344-18.343c3.124-3.124 3.124-8.19 0-11.314z"/><path d="m157.657 402.343c-3.125-3.124-8.189-3.124-11.314 0l-29.657 29.657h-20.686v-20.686l29.657-29.657c3.124-3.124 3.124-8.189 0-11.313-3.125-3.124-8.189-3.124-11.314 0l-18.343 18.342v-12.686c0-4.418-3.582-8-8-8s-8 3.582-8 8v12.686l-18.343-18.343c-3.125-3.124-8.189-3.124-11.314 0-3.124 3.124-3.124 8.189 0 11.313l29.657 29.658v20.686h-20.685l-29.657-29.657c-3.125-3.124-8.189-3.124-11.314 0-3.124 3.124-3.124 8.189 0 11.313l18.343 18.344h-12.687c-4.418 0-8 3.582-8 8s3.582 8 8 8h12.686l-18.344 18.343c-3.124 3.124-3.124 8.189 0 11.313 3.125 3.125 8.189 3.124 11.314 0l29.659-29.656h20.685v20.686l-29.657 29.657c-3.124 3.124-3.124 8.189 0 11.313 3.125 3.124 8.189 3.124 11.314 0l18.343-18.342v12.686c0 4.418 3.582 8 8 8s8-3.582 8-8v-12.686l18.343 18.343c3.125 3.125 8.189 3.124 11.314 0 3.124-3.124 3.124-8.189 0-11.313l-29.657-29.658v-20.686h20.686l29.657 29.657c1.563 1.562 3.609 2.343 5.657 2.343 7.061 0 10.714-8.6 5.657-13.657l-18.343-18.343h12.686c4.418 0 8-3.582 8-8s-3.582-8-8-8h-12.686l18.344-18.343c3.123-3.124 3.123-8.19-.001-11.314z"/><path d="m266.34 290.34c-3.114 3.114-3.117 8.203 0 11.32 3.115 3.115 8.203 3.117 11.32 0 3.116-3.117 3.115-8.203 0-11.32-3.116-3.115-8.203-3.116-11.32 0z"/></svg>