<svg height="512pt" viewBox="-11 0 512 512.00286" width="512pt" xmlns="http://www.w3.org/2000/svg"><path d="m292.757812 224.355469c-.121093 1.992187-.984374 3.992187-2.746093 5.554687-38.542969 34.304688-95.429688 44.023438-144.75 20.175782-63.886719-30.894532-91.832031-107.585938-62.699219-172.289063 13.441406-29.867187 36.527344-52.167969 63.828125-65.019531 3.671875-1.738282 7.417969-3.289063 11.230469-4.679688 7.144531-2.59375 13.65625 5.113282 9.953125 11.746094-37.304688 66.808594-9.570313 150.128906 57.5 182.574219 19.160156 9.265625 39.464843 13.464843 59.382812 13.132812 5.242188-.09375 8.59375 4.367188 8.300781 8.804688zm0 0" fill="#f29500"/><path d="m292.757812 224.355469c-33.519531 13.996093-72.65625 14.097656-107.917968-2.949219-63.878906-30.894531-91.832032-107.585938-62.699219-172.289062 6.207031-13.785157 14.46875-25.964844 24.25-36.339844 3.671875-1.738282 7.417969-3.289063 11.230469-4.679688 7.144531-2.59375 13.65625 5.113282 9.953125 11.746094-37.304688 66.808594-9.570313 150.128906 57.5 182.574219 19.160156 9.265625 39.464843 13.464843 59.382812 13.132812 5.242188-.09375 8.59375 4.367188 8.300781 8.804688zm0 0" fill="#ffb52d"/><path d="m419.542969 280.960938c-.304688 8.210937-7.296875 14.589843-15.507813 14.589843h-191.039062c-8.875 0-23.023438-7.40625-29.703125-20.992187-2.316407-4.679688-3.722657-10.113282-3.722657-16.222656 0-11.308594 4.726563-20.757813 11.914063-27.308594 11.570313-10.546875 29.515625-13.554688 44.296875-4.710938 1.519531.917969 3.472656.070313 3.8125-1.660156 3.441406-17.167969 15.546875-31.214844 31.558594-37.375 5.664062-2.183594 11.8125-3.378906 18.246094-3.378906 23.023437 0 42.472656 15.335937 48.691406 36.335937.324218 1.066407 1.402344 1.699219 2.488281 1.480469 23.980469-4.859375 43.664063 18.375 36.386719 40.714844-.453125 1.386718.574218 2.808594 2.035156 2.808594h25.40625c8.554688 0 15.457031 7.09375 15.136719 15.71875zm0 0" fill="#2476ed"/><path d="m309.964844 295.550781h-96.96875c-8.875 0-23.023438-7.40625-29.703125-20.992187-2.316407-4.679688-3.722657-10.113282-3.722657-16.222656 0-11.308594 4.726563-20.757813 11.914063-27.308594 3.136719-.605469 6.378906-.925782 9.699219-.925782 6.429687 0 12.589844 1.195313 18.246094 3.378907 16.007812 6.160156 28.113281 20.207031 31.554687 37.375.34375 1.730469 2.304687 2.566406 3.816406 1.660156 21.394531-12.808594 49.4375-.753906 55.164063 23.035156zm0 0" fill="#0956c6"/><path d="m296.988281 324.515625c0 6.113281-1.414062 11.539063-3.726562 16.226563-6.679688 13.582031-20.828125 20.988281-29.703125 20.988281h-191.035156c-8.214844 0-15.214844-6.382813-15.515626-14.589844-.3125-8.621094 6.582032-15.71875 15.144532-15.71875h25.40625c1.457031 0 2.484375-1.421875 2.03125-2.808594-7.273438-22.34375 12.402344-45.578125 36.382812-40.714843 1.089844.21875 2.167969-.414063 2.484375-1.484376 6.222657-21 25.675781-36.328124 48.699219-36.328124 6.429688 0 12.582031 1.191406 18.242188 3.375 16.007812 6.164062 28.113281 20.203124 31.554687 37.375.347656 1.730468 2.300781 2.570312 3.816406 1.664062 23.953125-14.339844 56.21875 2.472656 56.21875 32.015625zm0 0" fill="#97bffd"/><path d="m296.988281 324.515625c0 6.113281-1.414062 11.539063-3.726562 16.226563h-159.125c-8.210938 0-15.210938-6.382813-15.511719-14.589844-.316406-8.621094 6.582031-15.71875 15.140625-15.71875h25.410156c1.457031 0 2.480469-1.421875 2.03125-2.808594-7.269531-22.339844 12.402344-45.578125 36.378907-40.707031 1.089843.21875 2.171874-.414063 2.484374-1.476563 1.261719-4.253906 3.0625-8.277344 5.328126-11.980468 16.011718 6.160156 28.113281 20.203124 31.554687 37.371093.347656 1.734375 2.300781 2.574219 3.820313 1.664063 23.949218-14.335938 56.214843 2.476562 56.214843 32.019531zm0 0" fill="#b9d3fd"/><path d="m304.53125 324.503906c0-7.679687-1.851562-14.976562-5.363281-21.417968h105.21875c12.519531 0 22.691406-10.183594 22.691406-22.699219 0-12.507813-10.171875-22.691407-22.691406-22.691407h-18.667969c3.105469-24.820312-18.113281-46.074218-41.902344-44.039062-16.707031-43.398438-75.3125-50.601562-102.140625-12.507812-48.164062-16.773438-81.710937-61.359376-83.210937-113.933594-.109375-4.164063-3.601563-7.445313-7.757813-7.335938-4.164062.121094-7.445312 3.59375-7.324219 7.757813 1.628907 57.277343 37.429688 107.253906 91.21875 127.015625-.269531.746094-.53125 1.5-.773437 2.253906-23.53125-9.730469-51.371094 2.675781-59.480469 27.050781-4.582031 1.027344-8.96875 2.597657-13.105468 4.648438-50.71875-18.054688-82.667969-66.121094-82.667969-117.203125 0-49.800782 30.585937-97.699219 81.621093-116.207032.648438-.238281 1.042969.453126.785157.964844-6.949219 12.4375-11.964844 25.871094-14.820313 39.730469-.847656 4.085937 1.78125 8.078125 5.867188 8.914063 4.085937.84375 8.070312-1.78125 8.914062-5.867188 2.535156-12.296875 6.976563-24.230469 13.222656-35.421875 7.09375-12.679687-5.34375-27.542969-19.109374-22.511719-82.714844 30.011719-117.097657 128.28125-70.863282 203.585938 15.078125 24.578125 37.066406 43.324218 62.359375 54.402344-5.945312 5.753906-10.714843 12.828124-13.796875 20.828124-23.746094-2.03125-45.007812 19.179688-41.902344 44.039063h-18.664062c-12.519531 0-22.695312 10.183594-22.695312 22.699219 0 12.511718 10.175781 22.695312 22.695312 22.695312h191.378906c16.703125 0 40.964844-17.429687 40.964844-44.75zm-87.507812-95.832031c15.394531 0 17.355468 10 24.9375 6.730469 2.472656-1.054688 4.195312-3.347656 4.515624-6.015625 2.65625-21.546875 21.019532-37.917969 42.921876-37.917969 19.8125 0 37.039062 13.394531 41.910156 32.5625 1.019531 4.0625 5.15625 6.519531 9.25 5.445312 19.613281-5.15625 36.21875 14.605469 28.398437 32.777344-2.140625 4.964844 1.503907 10.535156 6.929688 10.535156h28.5c4.1875 0 7.597656 3.410157 7.597656 7.597657 0 4.195312-3.410156 7.605469-7.597656 7.605469h-118.773438c-12.480469-8.699219-28.609375-10.816407-42.867187-4.917969-7.152344-22.375-27.40625-38.648438-51.324219-40.386719 5.566406-8.972656 15.699219-14.015625 25.601563-14.015625zm46.542968 125.484375h-191.378906c-4.1875 0-7.597656-3.410156-7.597656-7.597656 0-4.195313 3.410156-7.605469 7.597656-7.605469h28.496094c2.535156 0 4.910156-1.277344 6.308594-3.402344 3.511718-5.367187-1.355469-7.644531-1.355469-16.542969 0-14.71875 14.007812-27.671874 30.378906-23.367187 4.039063 1.082031 8.21875-1.355469 9.246094-5.433594 8.21875-32.320312 48.394531-43.457031 72.152343-20.246093 6.820313 6.65625 11.433594 15.503906 12.679688 25.589843.691406 5.742188 7.34375 8.597657 11.996094 5.140625 19.058594-14.207031 47.347656-1.175781 47.347656 23.8125 0 19.5625-18.132812 29.652344-25.871094 29.652344zm0 0"/><path d="m415.199219 388.441406c6.664062 0 10.105469-8.117187 5.335937-12.886718l-6.300781-6.300782h15.167969c4.167968 0 7.546875-3.378906 7.546875-7.546875 0-4.171875-3.378907-7.546875-7.546875-7.546875h-15.167969l6.300781-6.304687c2.949219-2.949219 2.949219-7.726563 0-10.671875-2.945312-2.949219-7.726562-2.949219-10.671875 0l-6.300781 6.300781v-15.164063c0-4.171874-3.378906-7.546874-7.546875-7.546874-4.171875 0-7.550781 3.375-7.550781 7.546874v15.164063l-6.300782-6.300781c-2.949218-2.949219-7.726562-2.949219-10.671874 0-2.949219 2.949218-2.949219 7.726562 0 10.671875l6.300781 6.304687h-15.167969c-4.167969 0-7.546875 3.375-7.546875 7.546875 0 4.167969 3.378906 7.546875 7.546875 7.546875h15.167969l-6.300781 6.300782c-4.769532 4.769531-1.328126 12.886718 5.335937 12.886718 4.886719 0 6.488281-4 11.636719-8.515625v15.167969c0 4.167969 3.378906 7.546875 7.550781 7.546875 4.167969 0 7.546875-3.378906 7.546875-7.546875v-15.167969c5.148438 4.519531 6.75 8.515625 11.636719 8.515625zm0 0"/><path d="m357.824219 440.195312h-15.164063l6.300782-6.304687c2.945312-2.945313 2.945312-7.722656 0-10.671875-2.949219-2.945312-7.726563-2.945312-10.675782 0l-6.300781 6.300781v-15.164062c0-4.171875-3.378906-7.546875-7.546875-7.546875s-7.546875 3.375-7.546875 7.546875v15.164062l-6.304687-6.300781c-2.945313-2.949219-7.726563-2.949219-10.671876 0-2.945312 2.949219-2.945312 7.726562 0 10.671875l6.300782 6.300781h-15.164063c-4.167969 0-7.546875 3.378906-7.546875 7.546875 0 4.171875 3.378906 7.550781 7.546875 7.550781h15.167969l-6.304688 6.300782c-2.949218 2.949218-2.949218 7.726562 0 10.675781 2.949219 2.945313 7.726563 2.945313 10.671876 0l6.304687-6.304687v15.167968c0 4.167969 3.378906 7.546875 7.546875 7.546875s7.546875-3.378906 7.546875-7.546875v-15.167968c5.152344 4.519531 6.75 8.511718 11.636719 8.511718 1.933594 0 3.863281-.734375 5.335937-2.207031 2.949219-2.949219 2.949219-7.726563 0-10.675781l-6.300781-6.300782h15.167969c4.167969 0 7.546875-3.378906 7.546875-7.550781 0-4.167969-3.378906-7.542969-7.546875-7.542969zm0 0"/><path d="m482.382812 459.378906h-15.167968l6.300781-6.300781c2.949219-2.949219 2.949219-7.726563 0-10.675781-2.945313-2.945313-7.726563-2.945313-10.671875 0l-6.300781 6.304687v-15.167969c0-4.167968-3.378907-7.546874-7.546875-7.546874-4.167969 0-7.546875 3.378906-7.546875 7.546874v15.167969l-6.304688-6.304687c-2.945312-2.945313-7.726562-2.945313-10.671875 0-2.949218 2.949218-2.949218 7.726562 0 10.675781l6.300782 6.300781h-15.164063c-4.171875 0-7.550781 3.378906-7.550781 7.546875 0 4.171875 3.378906 7.550781 7.550781 7.550781h15.164063l-6.300782 6.300782c-4.769531 4.769531-1.328125 12.882812 5.335938 12.882812 4.886718 0 6.492187-3.996094 11.640625-8.511718v15.167968c0 4.167969 3.378906 7.546875 7.546875 7.546875 4.167968 0 7.546875-3.378906 7.546875-7.546875v-15.167968c5.152343 4.519531 6.75 8.511718 11.636719 8.511718 6.664062 0 10.105468-8.113281 5.335937-12.882812l-6.300781-6.300782h15.167968c4.167969 0 7.546876-3.378906 7.546876-7.550781 0-4.167969-3.378907-7.546875-7.546876-7.546875zm0 0"/><path d="m176.507812 405.800781h-15.167968l6.304687-6.304687c2.945313-2.945313 2.945313-7.722656 0-10.671875-2.949219-2.945313-7.726562-2.945313-10.675781 0l-6.300781 6.300781v-15.164062c0-4.167969-3.378907-7.546876-7.546875-7.546876-4.167969 0-7.546875 3.378907-7.546875 7.546876v15.164062l-6.304688-6.300781c-2.945312-2.945313-7.726562-2.945313-10.671875 0-2.949218 2.949219-2.949218 7.726562 0 10.671875l6.300782 6.304687h-15.164063c-4.167969 0-7.546875 3.375-7.546875 7.546875 0 4.167969 3.378906 7.546875 7.546875 7.546875h15.164063l-6.300782 6.300781c-2.949218 2.949219-2.949218 7.726563 0 10.675782 2.949219 2.945312 7.726563 2.945312 10.671875 0l6.304688-6.304688v15.167969c0 4.167969 3.378906 7.546875 7.546875 7.546875 4.167968 0 7.546875-3.378906 7.546875-7.546875v-15.167969l6.300781 6.304688c2.949219 2.945312 7.726562 2.945312 10.675781 0 2.945313-2.949219 2.945313-7.726563 0-10.675782l-6.304687-6.300781h15.167968c4.167969 0 7.546876-3.378906 7.546876-7.546875 0-4.171875-3.378907-7.546875-7.546876-7.546875zm0 0"/><path d="m74.324219 463.519531h-15.167969l6.304688-6.304687c2.945312-2.945313 2.945312-7.726563 0-10.671875-2.949219-2.945313-7.726563-2.945313-10.675782 0l-6.300781 6.300781v-15.164062c0-4.167969-3.378906-7.546876-7.546875-7.546876s-7.546875 3.378907-7.546875 7.546876v15.167968l-6.304687-6.304687c-2.945313-2.945313-7.726563-2.945313-10.671876 0-2.945312 2.949219-2.945312 7.726562 0 10.675781l6.300782 6.300781h-15.167969c-4.167969 0-7.546875 3.378907-7.546875 7.546875 0 4.171875 3.378906 7.546875 7.546875 7.546875h15.167969l-6.300782 6.304688c-4.769531 4.765625-1.328124 12.882812 5.335938 12.882812 4.886719 0 6.488281-3.996093 11.636719-8.511719v15.167969c0 4.167969 3.378906 7.546875 7.546875 7.546875 4.167968 0 7.546875-3.378906 7.546875-7.546875v-15.167969c5.152343 4.519532 6.753906 8.511719 11.640625 8.511719 6.664062 0 10.105468-8.113281 5.335937-12.882812l-6.300781-6.300781h15.164062c4.167969 0 7.546876-3.378907 7.546876-7.546876 0-4.171874-3.375-7.550781-7.542969-7.550781zm0 0"/></svg>